<mxfile host="app.diagrams.net" modified="2023-06-07T14:35:44.227Z" agent="Mozilla/5.0 (Windows NT 10.0; Win64; x64) AppleWebKit/537.36 (KHTML, like Gecko) Chrome/114.0.0.0 Safari/537.36" etag="2gQXaW8TpOf-pIj_Wh_m" version="21.3.7" type="github">
  <diagram name="Страница 1" id="xJsyMVKvMXLTNkcWZKba">
    <mxGraphModel dx="1094" dy="593" grid="0" gridSize="10" guides="1" tooltips="1" connect="1" arrows="1" fold="1" page="1" pageScale="1" pageWidth="2336" pageHeight="1654" math="0" shadow="0">
      <root>
        <mxCell id="0" />
        <mxCell id="1" parent="0" />
        <mxCell id="HMCEYHRRzIQeLrXfvPrk-3" style="edgeStyle=orthogonalEdgeStyle;rounded=0;orthogonalLoop=1;jettySize=auto;html=1;exitX=0;exitY=0.5;exitDx=0;exitDy=0;endArrow=none;endFill=0;startArrow=classic;startFill=1;" edge="1" parent="1" source="HMCEYHRRzIQeLrXfvPrk-2">
          <mxGeometry relative="1" as="geometry">
            <mxPoint x="633" y="274" as="targetPoint" />
          </mxGeometry>
        </mxCell>
        <mxCell id="HMCEYHRRzIQeLrXfvPrk-5" style="edgeStyle=orthogonalEdgeStyle;rounded=0;orthogonalLoop=1;jettySize=auto;html=1;exitX=0.5;exitY=1;exitDx=0;exitDy=0;startArrow=classic;startFill=1;endArrow=none;endFill=0;" edge="1" parent="1" source="HMCEYHRRzIQeLrXfvPrk-2">
          <mxGeometry relative="1" as="geometry">
            <mxPoint x="808.8571428571429" y="506.00669642857133" as="targetPoint" />
          </mxGeometry>
        </mxCell>
        <mxCell id="HMCEYHRRzIQeLrXfvPrk-11" style="edgeStyle=orthogonalEdgeStyle;rounded=0;orthogonalLoop=1;jettySize=auto;html=1;exitX=1;exitY=0.5;exitDx=0;exitDy=0;entryX=0;entryY=0.5;entryDx=0;entryDy=0;" edge="1" parent="1" source="HMCEYHRRzIQeLrXfvPrk-2" target="HMCEYHRRzIQeLrXfvPrk-7">
          <mxGeometry relative="1" as="geometry">
            <Array as="points">
              <mxPoint x="869" y="262" />
              <mxPoint x="915" y="262" />
              <mxPoint x="915" y="351" />
            </Array>
          </mxGeometry>
        </mxCell>
        <mxCell id="HMCEYHRRzIQeLrXfvPrk-12" style="edgeStyle=orthogonalEdgeStyle;rounded=0;orthogonalLoop=1;jettySize=auto;html=1;exitX=1;exitY=0.5;exitDx=0;exitDy=0;entryX=0;entryY=0.5;entryDx=0;entryDy=0;" edge="1" parent="1" source="HMCEYHRRzIQeLrXfvPrk-2" target="HMCEYHRRzIQeLrXfvPrk-8">
          <mxGeometry relative="1" as="geometry">
            <Array as="points">
              <mxPoint x="869" y="285" />
              <mxPoint x="886" y="285" />
              <mxPoint x="886" y="469" />
            </Array>
          </mxGeometry>
        </mxCell>
        <mxCell id="HMCEYHRRzIQeLrXfvPrk-2" value="Регистрация аккаунта" style="rounded=0;whiteSpace=wrap;html=1;fontFamily=GOST type A Regular;fontSource=https%3A%2F%2Fwebfonts.pro%2Flight-fonts%2F123-gost_type_a.html;fontStyle=2;strokeColor=#ff6666;fontSize=16;" vertex="1" parent="1">
          <mxGeometry x="749" y="244" width="120" height="60" as="geometry" />
        </mxCell>
        <mxCell id="HMCEYHRRzIQeLrXfvPrk-4" value="Пользовательские данные" style="text;html=1;strokeColor=none;fillColor=none;align=center;verticalAlign=middle;whiteSpace=wrap;rounded=0;" vertex="1" parent="1">
          <mxGeometry x="659" y="238" width="60" height="30" as="geometry" />
        </mxCell>
        <mxCell id="HMCEYHRRzIQeLrXfvPrk-6" value="Заказчик" style="text;html=1;strokeColor=none;fillColor=none;align=center;verticalAlign=middle;whiteSpace=wrap;rounded=0;" vertex="1" parent="1">
          <mxGeometry x="746" y="476" width="60" height="30" as="geometry" />
        </mxCell>
        <mxCell id="HMCEYHRRzIQeLrXfvPrk-13" style="edgeStyle=orthogonalEdgeStyle;rounded=0;orthogonalLoop=1;jettySize=auto;html=1;exitX=1;exitY=0.5;exitDx=0;exitDy=0;entryX=0;entryY=0.5;entryDx=0;entryDy=0;" edge="1" parent="1" source="HMCEYHRRzIQeLrXfvPrk-7" target="HMCEYHRRzIQeLrXfvPrk-10">
          <mxGeometry relative="1" as="geometry" />
        </mxCell>
        <mxCell id="HMCEYHRRzIQeLrXfvPrk-7" value="Поиск среди услуг, размещенных специалистами" style="rounded=0;whiteSpace=wrap;html=1;fontFamily=GOST type A Regular;fontSource=https%3A%2F%2Fwebfonts.pro%2Flight-fonts%2F123-gost_type_a.html;fontStyle=2;strokeColor=#ff6666;fontSize=16;" vertex="1" parent="1">
          <mxGeometry x="961" y="296" width="120" height="110" as="geometry" />
        </mxCell>
        <mxCell id="HMCEYHRRzIQeLrXfvPrk-14" style="edgeStyle=orthogonalEdgeStyle;rounded=0;orthogonalLoop=1;jettySize=auto;html=1;exitX=1;exitY=0.5;exitDx=0;exitDy=0;entryX=0;entryY=0.5;entryDx=0;entryDy=0;" edge="1" parent="1" source="HMCEYHRRzIQeLrXfvPrk-8" target="HMCEYHRRzIQeLrXfvPrk-9">
          <mxGeometry relative="1" as="geometry" />
        </mxCell>
        <mxCell id="HMCEYHRRzIQeLrXfvPrk-8" value="Создание заказа на ремонт" style="rounded=0;whiteSpace=wrap;html=1;fontFamily=GOST type A Regular;fontSource=https%3A%2F%2Fwebfonts.pro%2Flight-fonts%2F123-gost_type_a.html;fontStyle=2;strokeColor=#ff6666;fontSize=16;" vertex="1" parent="1">
          <mxGeometry x="961" y="439" width="120" height="60" as="geometry" />
        </mxCell>
        <mxCell id="HMCEYHRRzIQeLrXfvPrk-9" value="Ожидание отклика от специалистов" style="rounded=0;whiteSpace=wrap;html=1;fontFamily=GOST type A Regular;fontSource=https%3A%2F%2Fwebfonts.pro%2Flight-fonts%2F123-gost_type_a.html;fontStyle=2;strokeColor=#ff6666;fontSize=16;" vertex="1" parent="1">
          <mxGeometry x="1162" y="513" width="120" height="94" as="geometry" />
        </mxCell>
        <mxCell id="HMCEYHRRzIQeLrXfvPrk-10" value="Связаться со специалистом через чат или телефон" style="rounded=0;whiteSpace=wrap;html=1;fontFamily=GOST type A Regular;fontSource=https%3A%2F%2Fwebfonts.pro%2Flight-fonts%2F123-gost_type_a.html;fontStyle=2;strokeColor=#ff6666;fontSize=16;" vertex="1" parent="1">
          <mxGeometry x="1166" y="383" width="120" height="87" as="geometry" />
        </mxCell>
        <mxCell id="HMCEYHRRzIQeLrXfvPrk-15" value="1" style="text;html=1;strokeColor=none;fillColor=none;align=center;verticalAlign=middle;whiteSpace=wrap;rounded=0;" vertex="1" parent="1">
          <mxGeometry x="851" y="288" width="14" height="11" as="geometry" />
        </mxCell>
        <mxCell id="HMCEYHRRzIQeLrXfvPrk-16" value="2" style="text;html=1;strokeColor=none;fillColor=none;align=center;verticalAlign=middle;whiteSpace=wrap;rounded=0;" vertex="1" parent="1">
          <mxGeometry x="1064" y="392" width="14" height="11" as="geometry" />
        </mxCell>
        <mxCell id="HMCEYHRRzIQeLrXfvPrk-17" value="2" style="text;html=1;strokeColor=none;fillColor=none;align=center;verticalAlign=middle;whiteSpace=wrap;rounded=0;" vertex="1" parent="1">
          <mxGeometry x="1064" y="483" width="14" height="11" as="geometry" />
        </mxCell>
        <mxCell id="HMCEYHRRzIQeLrXfvPrk-18" value="3" style="text;html=1;strokeColor=none;fillColor=none;align=center;verticalAlign=middle;whiteSpace=wrap;rounded=0;" vertex="1" parent="1">
          <mxGeometry x="1268" y="453" width="14" height="11" as="geometry" />
        </mxCell>
        <mxCell id="HMCEYHRRzIQeLrXfvPrk-19" value="3" style="text;html=1;strokeColor=none;fillColor=none;align=center;verticalAlign=middle;whiteSpace=wrap;rounded=0;" vertex="1" parent="1">
          <mxGeometry x="1265" y="592" width="14" height="11" as="geometry" />
        </mxCell>
      </root>
    </mxGraphModel>
  </diagram>
</mxfile>
